<svg width="183" height="54" viewBox="0 0 183 54" fill="none" xmlns="http://www.w3.org/2000/svg">
<path d="M9.54 39.54C7.932 39.54 6.312 39.372 4.68 39.036C3.048 38.724 1.728 38.304 0.72 37.776V31.188C2.04 31.908 3.42 32.448 4.86 32.808C6.324 33.168 7.692 33.348 8.964 33.348C10.812 33.348 11.736 32.856 11.736 31.872C11.736 31.464 11.592 31.116 11.304 30.828C11.04 30.516 10.632 30.228 10.08 29.964C9.528 29.676 8.652 29.268 7.452 28.74C5.124 27.732 3.432 26.628 2.376 25.428C1.344 24.228 0.828 22.74 0.828 20.964C0.828 19.476 1.236 18.156 2.052 17.004C2.892 15.828 4.056 14.916 5.544 14.268C7.032 13.62 8.748 13.296 10.692 13.296C12.276 13.296 13.68 13.428 14.904 13.692C16.128 13.932 17.316 14.328 18.468 14.88V21.252C16.38 20.1 14.244 19.524 12.06 19.524C11.1 19.524 10.332 19.668 9.756 19.956C9.18 20.22 8.892 20.616 8.892 21.144C8.892 21.672 9.144 22.104 9.648 22.44C10.176 22.752 11.16 23.196 12.6 23.772L13.392 24.096C15.096 24.792 16.404 25.488 17.316 26.184C18.252 26.856 18.924 27.648 19.332 28.56C19.74 29.448 19.944 30.576 19.944 31.944C19.944 34.32 19.08 36.18 17.352 37.524C15.624 38.868 13.02 39.54 9.54 39.54ZM28.1725 39.54C25.9645 39.54 24.1885 39.036 22.8445 38.028C21.5245 36.996 20.8645 35.532 20.8645 33.636C20.8645 31.692 21.5125 30.216 22.8085 29.208C24.1045 28.176 25.9885 27.66 28.4605 27.66C29.3485 27.66 30.2485 27.756 31.1605 27.948C32.0725 28.14 32.8405 28.38 33.4645 28.668V28.344C33.4645 27.552 33.0685 26.952 32.2765 26.544C31.5085 26.136 30.4285 25.932 29.0365 25.932C26.9485 25.932 25.0285 26.352 23.2765 27.192V22.44C24.0685 22.056 25.1005 21.756 26.3725 21.54C27.6445 21.3 29.0005 21.18 30.4405 21.18C33.7765 21.18 36.3205 21.816 38.0725 23.088C39.8245 24.36 40.7005 26.16 40.7005 28.488V39H33.8965V37.632C33.3205 38.208 32.5285 38.664 31.5205 39C30.5125 39.36 29.3965 39.54 28.1725 39.54ZM30.4045 35.364C31.0525 35.364 31.6525 35.244 32.2045 35.004C32.7565 34.764 33.1765 34.452 33.4645 34.068V32.736C32.5765 32.16 31.5685 31.872 30.4405 31.872C29.7685 31.872 29.2405 32.028 28.8565 32.34C28.4965 32.652 28.3165 33.084 28.3165 33.636C28.3165 34.164 28.4965 34.584 28.8565 34.896C29.2165 35.208 29.7325 35.364 30.4045 35.364ZM51.8766 39.54C50.0526 39.54 48.4446 39.168 47.0526 38.424C45.6606 37.656 44.5806 36.588 43.8126 35.22C43.0686 33.828 42.6966 32.22 42.6966 30.396C42.6966 28.596 43.0686 27 43.8126 25.608C44.5806 24.192 45.6606 23.1 47.0526 22.332C48.4446 21.564 50.0526 21.18 51.8766 21.18C52.9806 21.18 54.0126 21.348 54.9726 21.684C55.9566 21.996 56.7726 22.428 57.4206 22.98V12.396H64.6206V39H57.6726V37.416C56.9526 38.112 56.0886 38.64 55.0806 39C54.0966 39.36 53.0286 39.54 51.8766 39.54ZM53.8206 33.96C54.6366 33.96 55.3566 33.768 55.9806 33.384C56.6286 33 57.1086 32.472 57.4206 31.8V28.956C57.1086 28.284 56.6286 27.756 55.9806 27.372C55.3566 26.988 54.6366 26.796 53.8206 26.796C52.6926 26.796 51.7926 27.12 51.1206 27.768C50.4726 28.392 50.1486 29.268 50.1486 30.396C50.1486 31.524 50.4726 32.4 51.1206 33.024C51.7926 33.648 52.6926 33.96 53.8206 33.96ZM77.1593 39.54C74.9513 39.54 73.0193 39.156 71.3633 38.388C69.7313 37.596 68.4713 36.504 67.5833 35.112C66.6953 33.72 66.2513 32.136 66.2513 30.36C66.2513 28.608 66.6953 27.036 67.5833 25.644C68.4713 24.252 69.7313 23.16 71.3633 22.368C73.0193 21.576 74.9513 21.18 77.1593 21.18C79.3673 21.18 81.2993 21.576 82.9553 22.368C84.6113 23.16 85.8833 24.252 86.7713 25.644C87.6593 27.036 88.1033 28.608 88.1033 30.36C88.1033 32.136 87.6593 33.72 86.7713 35.112C85.8833 36.504 84.6113 37.596 82.9553 38.388C81.2993 39.156 79.3673 39.54 77.1593 39.54ZM77.1593 33.96C78.2393 33.96 79.1033 33.636 79.7513 32.988C80.3993 32.34 80.7233 31.464 80.7233 30.36C80.7233 29.256 80.3993 28.392 79.7513 27.768C79.1033 27.12 78.2393 26.796 77.1593 26.796C76.0793 26.796 75.2153 27.12 74.5673 27.768C73.9433 28.392 73.6313 29.256 73.6313 30.36C73.6313 31.464 73.9433 32.34 74.5673 32.988C75.2153 33.636 76.0793 33.96 77.1593 33.96ZM87.2044 21.72H94.4044L97.9324 30.792L101.46 21.72H108.66L101.388 39H94.4764L87.2044 21.72ZM115.098 46.128C114.258 46.128 113.382 46.068 112.47 45.948C111.558 45.828 110.886 45.66 110.454 45.444V40.116C111.198 40.404 112.014 40.548 112.902 40.548C113.67 40.548 114.258 40.38 114.666 40.044C115.074 39.732 115.398 39.252 115.638 38.604L115.962 37.776L108.474 21.72H115.674L119.778 32.268L123.63 21.72H130.866L123.954 39.396C123.042 41.7 121.89 43.392 120.498 44.472C119.106 45.576 117.306 46.128 115.098 46.128ZM134.056 39C133.36 39 132.772 38.772 132.292 38.316C131.812 37.836 131.572 37.248 131.572 36.552C131.572 35.832 131.812 35.232 132.292 34.752C132.772 34.248 133.36 33.996 134.056 33.996C134.752 33.996 135.34 34.248 135.82 34.752C136.324 35.232 136.576 35.832 136.576 36.552C136.576 37.224 136.324 37.8 135.82 38.28C135.34 38.76 134.752 39 134.056 39ZM151.469 39.54C150.317 39.54 149.237 39.36 148.229 39C147.245 38.64 146.393 38.112 145.673 37.416V39H138.725V12.396H145.925V22.98C146.573 22.428 147.389 21.996 148.373 21.684C149.357 21.348 150.389 21.18 151.469 21.18C153.293 21.18 154.901 21.564 156.293 22.332C157.685 23.1 158.753 24.192 159.497 25.608C160.265 27 160.649 28.596 160.649 30.396C160.649 32.22 160.265 33.828 159.497 35.22C158.753 36.588 157.685 37.656 156.293 38.424C154.901 39.168 153.293 39.54 151.469 39.54ZM149.525 33.96C150.653 33.96 151.541 33.648 152.189 33.024C152.861 32.4 153.197 31.524 153.197 30.396C153.197 29.268 152.861 28.392 152.189 27.768C151.541 27.12 150.653 26.796 149.525 26.796C148.709 26.796 147.977 26.988 147.329 27.372C146.705 27.756 146.237 28.284 145.925 28.956V31.8C146.237 32.472 146.705 33 147.329 33.384C147.977 33.768 148.709 33.96 149.525 33.96ZM166.356 46.128C165.516 46.128 164.64 46.068 163.728 45.948C162.816 45.828 162.144 45.66 161.712 45.444V40.116C162.456 40.404 163.272 40.548 164.16 40.548C164.928 40.548 165.516 40.38 165.924 40.044C166.332 39.732 166.656 39.252 166.896 38.604L167.22 37.776L159.732 21.72H166.932L171.036 32.268L174.888 21.72H182.124L175.212 39.396C174.3 41.7 173.148 43.392 171.756 44.472C170.364 45.576 168.564 46.128 166.356 46.128Z" fill="#FFDD59"/>
</svg>
